<svg xmlns="http://www.w3.org/2000/svg" viewBox="0 0 320 660" width="320" height="660" font-family="-apple-system,'Segoe UI',Roboto,Helvetica,Arial,sans-serif">
  <defs>
    <clipPath id="screen7"><rect x="8" y="8" width="304" height="644" rx="36"/></clipPath>
  </defs>
  <rect x="2" y="2" width="316" height="656" rx="42" fill="#000000"/>
  <g clip-path="url(#screen7)">
    <rect x="8" y="8" width="304" height="644" fill="#0D1117"/>
    <text x="34" y="36" fill="#E6EDF3" font-size="12" font-weight="600">9:41</text>
    <rect x="256" y="26" width="24" height="12" rx="3" fill="none" stroke="#8B949E"/>
    <rect x="258" y="28" width="16" height="8" rx="1.5" fill="#8B949E"/>
    <!-- header -->
    <text x="24" y="74" fill="#8B949E" font-size="15">‹</text>
    <text x="128" y="74" fill="#E6EDF3" font-size="17" font-weight="600">Memory</text>
    <text x="24" y="102" fill="#8B949E" font-size="11">The agent injects matching memories into its context</text>
    <text x="24" y="117" fill="#8B949E" font-size="11">in Agent Mode. Everything stays on this device.</text>
    <!-- add card -->
    <rect x="24" y="130" width="272" height="132" rx="12" fill="#161B22" stroke="#2D333B"/>
    <rect x="40" y="144" width="82" height="26" rx="13" fill="#E8A33D"/>
    <text x="53" y="161" fill="#0D1117" font-size="11.5" font-weight="600">About you</text>
    <rect x="130" y="144" width="72" height="26" rx="13" fill="#1F2630" stroke="#2D333B"/>
    <text x="144" y="161" fill="#8B949E" font-size="11.5" font-weight="600">Projects</text>
    <rect x="40" y="180" width="240" height="42" rx="8" fill="#0D1117" stroke="#2D333B"/>
    <text x="52" y="205" fill="#6E7681" font-size="12">e.g. I prefer answers in bullet points</text>
    <rect x="40" y="230" width="240" height="24" rx="12" fill="#E8A33D"/>
    <text x="113" y="246" fill="#0D1117" font-size="11.5" font-weight="700">Remember this</text>
    <!-- about you -->
    <text x="24" y="292" fill="#E6EDF3" font-size="15" font-weight="700">About you</text>
    <rect x="24" y="302" width="272" height="52" rx="12" fill="#161B22" stroke="#2D333B"/>
    <text x="40" y="324" fill="#E6EDF3" font-size="12.5">Answers in metric units; I live in Calgary</text>
    <text x="40" y="341" fill="#6E7681" font-size="10.5">7/18/2026</text>
    <text x="272" y="330" fill="#F85149" font-size="14" font-weight="700">✕</text>
    <!-- projects -->
    <text x="24" y="392" fill="#E6EDF3" font-size="15" font-weight="700">Projects</text>
    <rect x="24" y="402" width="272" height="52" rx="12" fill="#161B22" stroke="#2D333B"/>
    <text x="40" y="424" fill="#E6EDF3" font-size="12.5">Planning a Banff trip in August</text>
    <text x="40" y="441" fill="#6E7681" font-size="10.5">7/18/2026</text>
    <text x="272" y="430" fill="#F85149" font-size="14" font-weight="700">✕</text>
    <!-- recent activity -->
    <text x="24" y="492" fill="#E6EDF3" font-size="15" font-weight="700">Recent activity</text>
    <text x="24" y="510" fill="#6E7681" font-size="10.5">Auto-captured summaries of past exchanges.</text>
    <rect x="24" y="520" width="272" height="62" rx="12" fill="#161B22" stroke="#2D333B"/>
    <text x="40" y="541" fill="#E6EDF3" font-size="12">Asked: 18% tip on $84.50 split three ways —</text>
    <text x="40" y="557" fill="#E6EDF3" font-size="12">Answer: $33.24 per person…</text>
    <text x="40" y="573" fill="#6E7681" font-size="10.5">7/18/2026</text>
    <text x="272" y="552" fill="#F85149" font-size="14" font-weight="700">✕</text>
  </g>
</svg>
